<svg xmlns="http://www.w3.org/2000/svg" x="0px" y="0px"
width="100" height="100"
viewBox="0 0 172 172"
style=" fill:#000000;"><g fill="none" fill-rule="nonzero" stroke="none" stroke-width="1" stroke-linecap="butt" stroke-linejoin="miter" stroke-miterlimit="10" stroke-dasharray="" stroke-dashoffset="0" font-family="none" font-weight="none" font-size="none" text-anchor="none" style="mix-blend-mode: normal"><path d="M0,172v-172h172v172z" fill="none"></path><g fill="#ffffff"><path d="M36.12,24.08c-6.62945,0 -12.04,5.41055 -12.04,12.04v72.24c0,6.62945 5.41055,12.04 12.04,12.04h1.72v1.72c0,6.62945 5.41055,12.04 12.04,12.04h1.72v1.72c0,6.62945 5.41055,12.04 12.04,12.04h72.24c6.62945,0 12.04,-5.41055 12.04,-12.04v-72.24c0,-6.62945 -5.41055,-12.04 -12.04,-12.04h-1.72v-1.72c0,-6.62945 -5.41055,-12.04 -12.04,-12.04h-1.72v-1.72c0,-6.62945 -5.41055,-12.04 -12.04,-12.04zM36.12,27.52h72.24c4.77071,0 8.6,3.82929 8.6,8.6v72.24c0,4.77071 -3.82929,8.6 -8.6,8.6h-72.24c-4.77071,0 -8.6,-3.82929 -8.6,-8.6v-72.24c0,-4.77071 3.82929,-8.6 8.6,-8.6zM43.86,36.12c-4.26432,0 -7.74,3.47568 -7.74,7.74v56.76c0,4.26432 3.47568,7.74 7.74,7.74h56.76c4.26432,0 7.74,-3.47568 7.74,-7.74v-56.76c0,-4.26432 -3.47568,-7.74 -7.74,-7.74zM43.86,37.84h56.76c3.33464,0 6.02,2.68536 6.02,6.02v40.23188l-17.35117,-25.23898c-0.16575,-0.24145 -0.44298,-0.38196 -0.7357,-0.37289c-0.27553,0.00835 -0.53037,0.14826 -0.68531,0.37625l-19.95469,29.40461l-13.04445,-17.3982c-0.15782,-0.20973 -0.40277,-0.33592 -0.66516,-0.34266c-0.25007,-0.00616 -0.49044,0.09685 -0.65844,0.28219l-15.70508,17.27391v-44.21609c0,-3.33464 2.68536,-6.02 6.02,-6.02zM120.4,41.28h1.72c4.77071,0 8.6,3.82929 8.6,8.6v72.24c0,4.77071 -3.82929,8.6 -8.6,8.6h-72.24c-4.77071,0 -8.6,-3.82929 -8.6,-8.6v-1.72h67.08c6.62945,0 12.04,-5.41055 12.04,-12.04zM58.48,43c-5.6894,0 -10.32,4.63061 -10.32,10.32c0,5.68939 4.6306,10.32 10.32,10.32c5.6894,0 10.32,-4.63061 10.32,-10.32c0,-5.68939 -4.6306,-10.32 -10.32,-10.32zM58.48,44.72c4.75984,0 8.6,3.84016 8.6,8.6c0,4.75984 -3.84016,8.6 -8.6,8.6c-4.75984,0 -8.6,-3.84016 -8.6,-8.6c0,-4.75984 3.84016,-8.6 8.6,-8.6zM134.16,55.04h1.72c4.77071,0 8.6,3.82929 8.6,8.6v72.24c0,4.77071 -3.82929,8.6 -8.6,8.6h-72.24c-4.77071,0 -8.6,-3.82929 -8.6,-8.6v-1.72h67.08c6.62945,0 12.04,-5.41055 12.04,-12.04zM88.58672,60.86516l18.05328,26.26359v13.49125c0,3.33464 -2.68536,6.02 -6.02,6.02h-43.09742zM54.11617,72.72711l12.77906,17.03875l-11.45211,16.87414h-11.58313c-3.33464,0 -6.02,-2.68536 -6.02,-6.02v-9.99078z"></path></g></g></svg>
