<?xml version="1.0" encoding="utf-8"?>
<!-- Generator: Adobe Illustrator 21.0.0, SVG Export Plug-In . SVG Version: 6.00 Build 0)  -->
<svg version="1.1" id="Layer_1" xmlns="http://www.w3.org/2000/svg" xmlns:xlink="http://www.w3.org/1999/xlink" x="0px" y="0px"
	 viewBox="0 0 190 30" style="enable-background:new 0 0 190 30;" xml:space="preserve">
<style type="text/css">
	.st0{fill:#FFFFFF;}
</style>
<title>logo-frameworkArtboard 1</title>
<g>
	<path class="st0" d="M10.9,6.7c-0.4,0.3-0.6,0.8-0.6,1.5v1.2h4.1v4h-4.1v13.4h-6V13.3H1.8v-4h2.5V7.6c0-1.9,0.6-3.5,1.9-4.6
		c1.3-1.1,3-1.7,5-1.7c1.3,0,2.6,0.2,3.9,0.7l-0.8,4.6c-0.9-0.3-1.6-0.5-2-0.5C11.7,6.2,11.2,6.4,10.9,6.7L10.9,6.7z"/>
	<path class="st0" d="M25.6,8.9c1-0.6,2.2-0.9,3.5-0.9v5.5c-0.2,0-0.5,0-0.9,0c-1.4,0-2.6,0.3-3.5,1c-0.9,0.7-1.4,1.6-1.5,2.7v9.4
		h-6.1V8.3h6.1v3.1C23.8,10.3,24.6,9.5,25.6,8.9L25.6,8.9z"/>
	<path class="st0" d="M45.2,9.8c1.4,1.2,2.1,2.8,2.1,4.8v12.1h-5.8v-2.3c-1.2,1.5-3,2.3-5.4,2.3c-1.9,0-3.4-0.5-4.5-1.6
		c-1.1-1-1.6-2.4-1.6-4.1c0-1.7,0.6-3.1,1.8-4c1.2-1,2.9-1.5,5.1-1.5h4.7v-0.2c0-0.9-0.3-1.5-0.9-2c-0.6-0.5-1.4-0.7-2.5-0.7
		c-0.8,0-1.6,0.1-2.5,0.4c-0.9,0.2-1.9,0.6-2.8,1.1l-1.6-4c1.5-0.7,2.9-1.2,4.2-1.5c1.3-0.3,2.7-0.5,4.2-0.5
		C41.9,8.1,43.9,8.6,45.2,9.8L45.2,9.8z M40.3,22c0.7-0.4,1.1-1,1.3-1.7v-1.6H38c-1.7,0-2.5,0.6-2.5,1.9c0,0.6,0.2,1.1,0.6,1.5
		c0.4,0.4,1,0.6,1.8,0.6C38.8,22.7,39.6,22.4,40.3,22L40.3,22z"/>
	<path class="st0" d="M78.2,10c1.2,1.3,1.8,3,1.8,5.1v11.6h-6v-9.9c0-1-0.3-1.9-0.8-2.5c-0.5-0.6-1.3-0.9-2.2-0.9
		c-1,0-1.9,0.4-2.5,1.2c-0.6,0.8-0.9,1.8-0.9,3v9.1h-6v-9.9c0-1-0.3-1.9-0.8-2.5c-0.5-0.6-1.3-0.9-2.2-0.9c-1,0-1.9,0.4-2.5,1.2
		c-0.6,0.8-0.9,1.8-0.9,3v9.1h-5.9V8.1h5.9v3.3c0.6-1.1,1.4-1.9,2.4-2.4c1-0.6,2.1-0.8,3.5-0.8c1.5,0,2.7,0.4,3.8,1.1
		c1,0.7,1.8,1.7,2.2,3c0.6-1.4,1.4-2.4,2.5-3.1c1.1-0.7,2.4-1,3.8-1C75.4,8.1,77,8.7,78.2,10L78.2,10z"/>
	<path class="st0" d="M98.1,10.6c1.6,1.8,2.4,4.2,2.4,7.2c0,0.5,0,0.8,0,1.1H87.9c0.3,1,0.8,1.8,1.5,2.4c0.7,0.6,1.6,0.8,2.6,0.8
		c0.8,0,1.5-0.2,2.3-0.5c0.7-0.3,1.4-0.8,2-1.4l3.1,3.1c-0.9,1.1-2.1,1.9-3.4,2.4c-1.3,0.6-2.8,0.8-4.5,0.8c-1.9,0-3.6-0.4-5.1-1.2
		c-1.5-0.8-2.6-1.9-3.3-3.2c-0.8-1.4-1.2-3-1.2-4.9c0-1.9,0.4-3.5,1.2-5c0.8-1.4,1.9-2.5,3.3-3.3c1.4-0.8,3.1-1.2,5-1.2
		C94.3,8,96.6,8.9,98.1,10.6L98.1,10.6z M94.7,15.7c0-1.1-0.3-1.9-0.9-2.6c-0.6-0.6-1.4-1-2.4-1c-0.9,0-1.7,0.3-2.4,0.9
		c-0.6,0.6-1.1,1.5-1.3,2.6H94.7L94.7,15.7z"/>
	<polygon class="st0" points="99.6,8.1 105.8,8.1 109.5,20.7 113.1,8.1 119,8.1 122.6,20.7 126.3,8.1 132.3,8.1 125.5,26.7 
		119.5,26.7 115.9,15.2 112.4,26.7 106.4,26.7 99.6,8.1 	"/>
	<path class="st0" d="M165.5,9c1-0.6,2.1-0.8,3.4-0.8v5.5c-0.2,0-0.5,0-0.9,0c-1.4,0-2.6,0.3-3.5,1c-0.9,0.7-1.4,1.6-1.5,2.7v9.3h-6
		V8.1h6v3.4C163.7,10.4,164.5,9.6,165.5,9L165.5,9z"/>
	<polygon class="st0" points="182.7,26.7 178.8,19.8 176.9,21.7 176.9,26.7 170.8,26.7 170.8,1.4 176.9,1.4 176.9,14.5 182.8,8.3 
		189.7,8.3 182.9,15.4 189.8,26.7 182.7,26.7 	"/>
	<path class="st0" d="M149.7,9.2c1.8,0.8,3.2,1.9,4.2,3.3c1,1.4,1.5,3,1.5,4.9c0,1.9-0.5,3.5-1.5,4.9c-1,1.4-2.4,2.5-4.2,3.3
		c-1.8,0.8-3.9,1.2-6.3,1.2c-2.4,0-4.5-0.4-6.3-1.2c-1.8-0.8-3.2-1.9-4.2-3.3c-1-1.4-1.5-3-1.5-4.9c0-1.8,0.5-3.5,1.5-4.9
		c1-1.4,2.4-2.5,4.2-3.3c1.8-0.8,3.9-1.2,6.3-1.2C145.8,8.1,147.9,8.4,149.7,9.2L149.7,9.2z"/>
	<path class="st0" d="M134.6,24.7c0.4,0.2,0.7,0.4,1,0.8c0.2,0.3,0.3,0.7,0.3,1.1c0,0.4-0.1,0.8-0.3,1.1c-0.2,0.3-0.6,0.6-1,0.8
		c-0.4,0.2-0.9,0.3-1.4,0.3c-0.5,0-1-0.1-1.4-0.3c-0.4-0.2-0.7-0.4-1-0.8c-0.2-0.3-0.3-0.7-0.3-1.1c0-0.4,0.1-0.8,0.3-1.1
		c0.2-0.3,0.5-0.6,1-0.8c0.4-0.2,0.9-0.3,1.4-0.3C133.7,24.5,134.2,24.6,134.6,24.7L134.6,24.7z"/>
</g>
</svg>
